<?xml version="1.0" encoding="utf-8"?>
<!-- Generator: Adobe Illustrator 23.0.5, SVG Export Plug-In . SVG Version: 6.00 Build 0)  -->
<svg version="1.1" id="Capa_1" xmlns="http://www.w3.org/2000/svg" xmlns:xlink="http://www.w3.org/1999/xlink" x="0px" y="0px"
	 viewBox="0 0 423.4 423.4" style="enable-background:new 0 0 423.4 423.4;" xml:space="preserve">
<g>
	<path d="M417.9,149.2c-3.8-4.6-9.4-7.3-15.4-7.3l-0.1,0L302.1,142l0.4-52.3l0-0.3l0-0.3c0-0.8-1.2-21-12.9-41.2
		C278.5,28.7,256,6,211.2,6c-44.7,0-66.9,21.8-77.7,40.1c-11.5,19.5-12.3,39-12.4,39.8l-0.4,56.3l-100.9,0.2
		c-5.6,0-10.8,2.5-14.4,6.7c-3.6,4.3-5.1,9.9-4.2,15.4l42.1,209.3l0.2,0.6c0.7,2.2,7.5,22.2,20.2,34.3c13,12.4,33.8,13.2,38.8,13.2
		c0.3,0,0.5,0,0.7,0h224.8l0.8-0.1c2.1-0.3,21.1-3.2,34.8-15.8c13.7-12.6,17.8-32.4,18.3-34.9l40.2-205.3l0-0.2
		C423.3,159.8,421.7,153.8,417.9,149.2z M144.2,86.7c0.1-1.5,1.2-15.8,9.6-29.6C165.1,38.4,184.4,29,211.2,29
		c26.8,0,46.4,10,58,29.6c8.5,14.4,10,29.3,10.2,31.3l-0.4,50.7l-135.3,1L144.2,86.7z M359.5,366.8l0,0.1
		c-0.7,3.7-4.2,15.8-11.2,22.2c-7.5,6.9-19,9.3-21.8,9.9H103.2l-0.3,0c-3.3,0.1-17-0.9-23.3-6.8c-6.9-6.6-12.3-19.2-14-24.2
		L25,165.4l374-0.6L359.5,366.8z"/>
	<path d="M290.7,285.9c6.4,0,11.6-5.2,11.6-11.6V232c0-6.4-5.2-11.6-11.6-11.6S279,225.6,279,232v42.2
		C279,280.7,284.2,285.9,290.7,285.9z"/>
	<path d="M132,285.9c6.4,0,11.6-5.2,11.6-11.6V232c0-6.4-5.2-11.6-11.6-11.6c-6.4,0-11.6,5.2-11.6,11.6v42.3
		C120.3,280.7,125.5,285.9,132,285.9z"/>
</g>
</svg>
