<svg xmlns="http://www.w3.org/2000/svg" width="37.001" height="37.002" viewBox="0 0 37.001 37.002">
  <g id="bluetooth_1_" data-name="bluetooth (1)" transform="translate(0 0.002)">
    <g id="color" transform="translate(19.653 19.654)">
      <g id="Сгруппировать_47" data-name="Сгруппировать 47">
        <path id="Контур_55" data-name="Контур 55" d="M19.3,25.86A6.556,6.556,0,1,1,25.86,19.3,6.563,6.563,0,0,1,19.3,25.86Z" transform="translate(-12.748 -12.748)" fill="#607d8b"/>
      </g>
    </g>
    <g id="_x31__x2C_5" transform="translate(0 -0.002)">
      <g id="Сгруппировать_48" data-name="Сгруппировать 48">
        <path id="Контур_56" data-name="Контур 56" d="M10.406,33.917a1.14,1.14,0,0,1-.493-.111,1.153,1.153,0,0,1-.663-1.045V20.232L1.915,26.606A1.157,1.157,0,1,1,.4,24.86L9.25,17.17V1.157A1.158,1.158,0,0,1,9.921.107a1.146,1.146,0,0,1,1.233.168l10.021,8.5a1.155,1.155,0,0,1-.025,1.784L11.563,18.24V30.313l3.89-3.2A1.157,1.157,0,1,1,16.921,28.9L11.14,33.655a1.162,1.162,0,0,1-.734.262ZM11.563,3.655v11.61l7.045-5.632Z" transform="translate(0 0.002)" fill="#fff"/>
      </g>
      <g id="Сгруппировать_49" data-name="Сгруппировать 49" transform="translate(0.001 7.031)">
        <path id="Контур_57" data-name="Контур 57" d="M17.075,20.16a1.156,1.156,0,0,1-.711-.245l-6.7-5.274L.4,6.588A1.157,1.157,0,0,1,1.915,4.841L12.032,13.6l5.755,4.494a1.156,1.156,0,0,1-.712,2.067Z" transform="translate(0 -4.559)" fill="#fff"/>
      </g>
      <g id="Сгруппировать_50" data-name="Сгруппировать 50" transform="translate(18.5 18.502)">
        <path id="Контур_58" data-name="Контур 58" d="M19.708,27.416a7.708,7.708,0,1,1,7.708-7.708A7.717,7.717,0,0,1,19.708,27.416Zm0-13.1a5.4,5.4,0,1,0,5.4,5.4A5.4,5.4,0,0,0,19.708,14.312Z" transform="translate(-12 -12)" fill="#fff"/>
      </g>
      <g id="Сгруппировать_51" data-name="Сгруппировать 51" transform="translate(29.678 29.678)">
        <path id="Контур_59" data-name="Контур 59" d="M25.416,26.573a1.147,1.147,0,0,1-.817-.339l-5.01-5.01a1.157,1.157,0,0,1,1.636-1.636l5.01,5.01a1.157,1.157,0,0,1-.819,1.975Z" transform="translate(-19.25 -19.249)" fill="#fff"/>
      </g>
    </g>
  </g>
</svg>
