<svg id="_x33_0" enable-background="new 0 0 64 64" height="512" viewBox="0 0 64 64" width="512" xmlns="http://www.w3.org/2000/svg"><g><path d="m18 38c0-1.105.895-2 2-2s2 .895 2 2v4.881l2.099.074s1.264.045 1.901.045v-5c0-1.105.895-2 2-2s2 .895 2 2v5.244c.456.058.9.124 1.326.201.482-1.119 1.467-2.001 2.674-2.315v-2.959c.579.807 1.379 1.458 2.351 1.847l.011.004c.716-.635 1.65-1.019 2.656-1.019.076 0 .154.015.23.019l-2.155-.862c-1.272-.508-2.093-1.722-2.093-3.092 0-1.755 1.372-3.215 3.123-3.324l7.783-.486c2.857-.179 5.094-2.561 5.094-5.422 0-1.451-.564-2.815-1.591-3.841l-.702-.702-1.414 1.414.702.702c.649.649 1.005 1.51 1.005 2.427 0 1.808-1.414 3.313-3.219 3.426l-7.783.486c-1.809.113-3.354 1.133-4.23 2.593-.574-2.278-2.253-4.169-4.554-4.936l-1.214-.405v-21c0-2.209-1.791-4-4-4s-4 1.791-4 4v21l-1.214.405c-2.858.952-4.786 3.627-4.786 6.64v8.555l4 .141z"/><path d="m25 51v2h4.37c-.237-.479-.37-1.017-.37-1.586 0-.14.015-.278.044-.414z"/><path d="m32.586 53 4.708-4.708.672.408c.313.19.815.391 1.452.255.762-.162 1.396-.804 1.544-1.56.165-.853-.231-1.447-.483-1.726l-.603-.669.603-.669c.258-.286.661-.896.475-1.769-.165-.771-.821-1.4-1.596-1.531-1.023-.172-2.006.449-2.277 1.45l-.294 1.086-1.044-.42c-.404-.163-.821-.189-1.234-.084-.758.194-1.367.86-1.483 1.617-.124.815.236 1.59.942 2.021l1.084.662-4.052 4.051c0 .874.712 1.586 1.586 1.586z"/><path d="m31.978 47.608c-.532-.614-.865-1.377-.953-2.188-1.504-.275-3.223-.42-5.025-.42-5.851 0-8.85 1.46-9.002 2.015.152.525 3.151 1.985 9.002 1.985h4.586z"/><path d="m50.477 48.253c1.538-.585 2.523-1.444 2.523-2.253 0-1.416-2.993-3-7-3-1.045 0-2.072.108-3.013.315-.048.594-.228 1.167-.532 1.685.001.002.002.004.004.006 3.8.096 6.843 1.384 8.018 3.247z"/><path d="m17 51h2v2h-2z"/><path d="m21 51h2v2h-2z"/><path d="m3 53.35v.65c0 2.923 11.032 7 29 7s29-4.077 29-7v-.65c-4.738 3.69-17.159 5.65-29 5.65s-24.262-1.96-29-5.65z"/><path d="m54.993 45.912c0 .03.007.058.007.088 0 1.759-1.481 3.292-4.006 4.194-.172 2.753-3.98 4.806-8.994 4.806-2.713 0-5.199-.63-6.872-1.713l-1.128 1.127c-.372.372-.888.586-1.414.586h-15.586c-1.103 0-2-.897-2-2v-2c0-.894.589-1.652 1.399-1.908-.876-.565-1.399-1.26-1.399-2.092 0-.941.679-1.702 1.771-2.302l-2.689-.094c-7.654 1.547-11.082 3.822-11.082 5.396 0 2.923 11.032 7 29 7s29-4.077 29-7c0-1.075-1.622-2.65-6.007-4.088z"/><path d="m49 50c0-1.296-2.506-2.731-6-2.967-.002.247-.026.496-.075.744-.301 1.545-1.543 2.804-3.09 3.134-.745.16-1.486.105-2.183-.149l-1.068 1.068c1.34.734 3.305 1.17 5.416 1.17 4.007 0 7-1.584 7-3z"/><path d="m38.905 20.995 2.215 1.384c1.177.736 1.88 2.004 1.88 3.393v1.228h2v-1.229c0-2.082-1.054-3.984-2.819-5.088l-2.215-1.383c-1.858-1.161-2.966-3.161-2.966-5.351 0-2.595 1.557-4.895 3.966-5.858l1.784-.714c2.582-1.033 4.25-3.496 4.25-6.276v-.101h-2v.101c0 1.957-1.175 3.692-2.992 4.419l-1.784.714c-3.174 1.269-5.224 4.297-5.224 7.715 0 2.884 1.46 5.518 3.905 7.046z"/><path d="m41 14.485c0 1.888.901 3.69 2.412 4.823l1.988 1.492 1.199-1.6-1.987-1.491c-1.009-.757-1.612-1.962-1.612-3.224 0-1.67 1.051-3.186 2.673-3.794 3.186-1.195 5.327-4.285 5.327-7.687v-.004l-2 .004c0 2.574-1.619 4.91-4.088 5.836-2.34.878-3.912 3.146-3.912 5.645z"/><path d="m52.35 18.76 4.398 3.77c1.432 1.227 2.252 3.011 2.252 4.896 0 3.245-2.428 5.995-5.647 6.397l-9.477 1.185.248 1.984 9.477-1.185c4.218-.527 7.399-4.13 7.399-8.381 0-2.469-1.075-4.808-2.95-6.415l-4.4-3.771z"/><path d="m49 13.641c0 1.144.445 2.219 1.293 3.066l1.375-1.453c-.425-.425-.668-1.013-.668-1.613 0-.714.341-1.396.912-1.825l.688-.516c1.503-1.127 2.4-2.922 2.4-4.8v-1.5h-2v1.5c0 1.252-.599 2.448-1.6 3.2l-.688.516c-1.072.805-1.712 2.085-1.712 3.425z"/></g></svg>