<svg width="16" height="16" viewBox="0 0 16 16" fill="none" xmlns="http://www.w3.org/2000/svg">
  <path fill-rule="evenodd" clip-rule="evenodd" d="M15.7064 14.3703L11.3258 9.98806C12.111 8.9171 12.5317 7.62232 12.5258 6.29435C12.5108 2.8279 9.70711 0.0200851 6.24068 6.36775e-05C4.5818 -0.0074418 2.98882 0.648814 1.81661 1.82264C0.644395 2.99646 -0.0096742 4.59034 0.000108172 6.24921C0.0150907 9.71597 2.81908 12.524 6.28582 12.5441C7.61921 12.5498 8.91871 12.1243 9.99039 11.3309L9.99497 11.3275L14.3715 15.7063C14.6082 15.9546 14.9608 16.0551 15.2927 15.9689C15.6246 15.8827 15.8838 15.6233 15.9697 15.2913C16.0556 14.9593 15.9548 14.6068 15.7064 14.3703ZM6.28125 11.2892C3.50801 11.2733 1.26485 9.02704 1.25268 6.25378C1.24519 4.92685 1.76849 3.652 2.70609 2.71302C3.64368 1.77403 4.91775 1.24884 6.24468 1.25435C9.01792 1.2703 11.2611 3.51652 11.2733 6.28978C11.2807 7.6167 10.7574 8.89155 9.81985 9.83053C8.88225 10.7695 7.60818 11.2947 6.28125 11.2892Z" fill="#8E8E93"/>
</svg>
